# xmcd
# 
# Track frame offsets:
#     150
#     19502
#     34699
#     51940
#     76968
#     94511
#     116724
#     135594
#     153532
#     180896
#     203383
#     221052
#     237344
#     259335
#     276856
# 
# Disc length: 4088
# 
# Revision: 0
# Processed by: cddbd v1.5.2PL0 Copyright (c) Steve Scherf et al.
# Submitted via: fre:ac v1.0.17
# 
DISCID=c40ff60f
DTITLE=Coalrangers - The Harbour Light Sessions
DYEAR=2002
DGENRE=Country
TTITLE0=Callin'
TTITLE1=Long Time a Comin'
TTITLE2=Not Trustworthy (A Lyin' Woman)
TTITLE3=Till I Gain Control Again
TTITLE4=If It's Alright
TTITLE5=Positive Blues
TTITLE6=Karamea Cowboy
TTITLE7=Gimmie Da Ting
TTITLE8=Feels Like Rain
TTITLE9=Walking Blues
TTITLE10=Look Up
TTITLE11=Rio
TTITLE12=Shotgun Rider
TTITLE13=Way Too Slow
TTITLE14=Jelly Jelly
EXTD=Recorded live December 2002 at the Harbour Light Theatre, Lyttleton, New Zealand
EXTT0=
EXTT1=
EXTT2=
EXTT3=
EXTT4=
EXTT5=
EXTT6=
EXTT7=
EXTT8=
EXTT9=
EXTT10=
EXTT11=
EXTT12=
EXTT13=
EXTT14=
PLAYORDER=
